<?xml version="1.0" encoding="utf-8"?>
<!-- Generator: Adobe Illustrator 19.1.0, SVG Export Plug-In . SVG Version: 6.00 Build 0)  -->
<svg version="1.1" id="Layer_1" xmlns="http://www.w3.org/2000/svg" xmlns:xlink="http://www.w3.org/1999/xlink" x="0px" y="0px"
	 viewBox="0 0 18 18" style="enable-background:new 0 0 18 18;" xml:space="preserve">
<style type="text/css">
	.st0{fill:#FFFFFF;}
</style>
<path id="XMLID_445_" class="st0" d="M9.5,1.3c-4.4,0-8,3.6-8,8s3.6,8,8,8s8-3.6,8-8S13.9,1.3,9.5,1.3z M14.3,11.6
	c0,1.3-1.1,2.4-2.4,2.4H7c-1.3,0-2.4-1.1-2.4-2.4V8.3h2.8c-0.1,0.3-0.2,0.6-0.2,1c0,1.3,1,2.3,2.3,2.3c1.3,0,2.3-1,2.3-2.3
	c0-0.3-0.1-0.7-0.2-1h2.7V11.6z M8.6,9.3c0-0.5,0.4-1,1-1c0.5,0,1,0.4,1,1c0,0.5-0.4,1-1,1C9,10.3,8.6,9.8,8.6,9.3z M14.3,7.4h-1.7
	h-1.8c-0.4-0.3-2.3-0.3-2.7,0H4.6V6.8c0-1.3,1.1-2.4,2.4-2.4h4.8c1.3,0,2.4,1.1,2.4,2.4V7.4z"/>
</svg>
