<?xml version="1.0" encoding="utf-8"?>
<!-- Generator: Adobe Illustrator 19.1.0, SVG Export Plug-In . SVG Version: 6.00 Build 0)  -->
<svg version="1.1" id="Layer_1" xmlns="http://www.w3.org/2000/svg" xmlns:xlink="http://www.w3.org/1999/xlink" x="0px" y="0px"
	 viewBox="0 0 18 18" style="enable-background:new 0 0 18 18;" xml:space="preserve">
<style type="text/css">
	.st0{fill:#FFFFFF;}
</style>
<path class="st0" d="M9,0.5C4.3,0.5,0.5,4.3,0.5,9c0,4.7,3.8,8.5,8.5,8.5c4.7,0,8.5-3.8,8.5-8.5C17.5,4.3,13.7,0.5,9,0.5z M11,8.7
	l3.9-3v6.9L11,8.7z M14.1,4.8L9,9L3.6,4.8H14.1z M2.8,5.7l4.3,3.2l-3.6,4H2.8V5.7z M5,12.8l3.1-3.4L9,10l0.9-0.6l3.5,3.4H5z"/>
</svg>
