<?xml version="1.0" encoding="utf-8"?>
<!-- Generator: Adobe Illustrator 19.1.0, SVG Export Plug-In . SVG Version: 6.00 Build 0)  -->
<svg version="1.1" id="Layer_1" xmlns="http://www.w3.org/2000/svg" xmlns:xlink="http://www.w3.org/1999/xlink" x="0px" y="0px"
	 viewBox="0 0 18 18" style="enable-background:new 0 0 18 18;" xml:space="preserve">
<style type="text/css">
	.st0{fill:#5D5D5D;}
</style>
<path id="XMLID_321_" class="st0" d="M9,1.1c-4.4,0-8,3.6-8,8s3.6,8,8,8c4.4,0,8-3.6,8-8S13.4,1.1,9,1.1z M13.4,7.1
	C13.4,7.1,13.4,7.1,13.4,7.1C13.4,7.1,13.4,7.1,13.4,7.1C13.4,7.1,13.4,7.1,13.4,7.1c0.2,3.7-2.7,6.6-6.3,6.6c-1.3,0-2.5-0.4-3.5-1
	c1.5,0.2,2.9-0.5,3.2-0.9c-1,0-1.9-0.9-2-1.5c0.2,0,0.7,0.1,0.9-0.1C4.3,9.8,4,8.8,4,8c0.2,0.2,0.7,0.3,1,0.3
	c-0.8-0.5-1.4-1.8-0.7-3c1.1,1.4,3,2.3,4.6,2.3h0c0-0.2-0.1-0.3-0.1-0.5c0-1.2,1-2.2,2.2-2.2c0.6,0,1.2,0.3,1.6,0.7v0
	c0.4,0,1.1-0.3,1.4-0.5c-0.1,0.5-0.6,1-0.9,1.2c0.5-0.1,1.1-0.3,1.2-0.4C14.1,6.4,13.7,6.8,13.4,7.1z"/>
</svg>
