<?xml version="1.0" encoding="utf-8"?>
<!-- Generator: Adobe Illustrator 19.1.0, SVG Export Plug-In . SVG Version: 6.00 Build 0)  -->
<svg version="1.1" id="Layer_1" xmlns="http://www.w3.org/2000/svg" xmlns:xlink="http://www.w3.org/1999/xlink" x="0px" y="0px"
	 viewBox="0 0 906.2 198.4" style="enable-background:new 0 0 906.2 198.4;" xml:space="preserve">
<style type="text/css">
	.st0{opacity:0.75;}
	.st1{fill:#FFFFFF;}
</style>
<g id="XMLID_245_" class="st0">
	<path id="XMLID_311_" class="st1" d="M0.6,188.5L86.2,3c0.8-1.7,2.2-3,4.7-3h2.8c2.8,0,3.9,1.4,4.7,3l84.9,185.4
		c1.7,3.6-0.6,7.2-4.7,7.2h-24c-4.1,0-6.1-1.7-8-5.5l-13.5-29.8H50.7l-13.5,29.8c-1.1,2.8-3.6,5.5-8,5.5h-24
		C1.1,195.6-1.1,192,0.6,188.5z M119.6,129.8L92,69.2h-0.8l-27,60.6H119.6z"/>
	<path id="XMLID_254_" class="st1" d="M208.3,8c0-2.8,2.2-5.2,5.2-5.2h63.1c32.8,0,58.1,22,58.1,51c0,21.2-17.4,37.7-30.3,43.8
		c14.6,4.7,35.8,19.6,35.8,44.9c0,30.9-26.5,53.2-60.1,53.2h-66.7c-3,0-5.2-2.5-5.2-5.2V8z M273.3,83.8c14.1,0,23.7-11,23.7-24.8
		s-9.6-23.4-23.7-23.4h-29.5v48.2H273.3z M277.2,163.1c13.8,0,24.8-10.7,24.8-25.1c0-13.8-13.8-24-28.1-24h-30v49H277.2z"/>
	<path id="XMLID_250_" class="st1" d="M463.4,0c55.1,0,99.2,44.4,99.2,99.5c0,55.1-44.1,98.9-99.2,98.9s-98.9-43.8-98.9-98.9
		C364.5,44.4,408.3,0,463.4,0z M463.4,162.6c34.7,0,63.4-28.4,63.4-63.1s-28.7-63.6-63.4-63.6s-63.1,28.9-63.1,63.6
		S428.7,162.6,463.4,162.6z"/>
	<path id="XMLID_248_" class="st1" d="M596,8c0-2.8,2.5-5.2,5.2-5.2h26.2c3,0,5.2,2.5,5.2,5.2v112.7c0,23.4,16,41.9,40,41.9
		c24,0,40.2-18.5,40.2-41.6V8c0-2.8,2.2-5.2,5.2-5.2h26.2c2.8,0,5.2,2.5,5.2,5.2v114.6c0,41.9-33.3,75.8-76.9,75.8
		c-43.3,0-76.6-33.9-76.6-75.8V8z"/>
	<path id="XMLID_246_" class="st1" d="M822.7,35.8h-42.2c-3,0-5.2-2.5-5.2-5.2V8c0-2.8,2.2-5.2,5.2-5.2H901c3,0,5.2,2.5,5.2,5.2
		v22.6c0,2.8-2.2,5.2-5.2,5.2h-42.2v154.6c0,2.8-2.5,5.2-5.2,5.2H828c-2.8,0-5.2-2.5-5.2-5.2V35.8z"/>
</g>
</svg>
