<?xml version="1.0" encoding="utf-8"?>
<!-- Generator: Adobe Illustrator 19.1.0, SVG Export Plug-In . SVG Version: 6.00 Build 0)  -->
<svg version="1.1" id="Layer_1" xmlns="http://www.w3.org/2000/svg" xmlns:xlink="http://www.w3.org/1999/xlink" x="0px" y="0px"
	 viewBox="0 0 280.4 702" style="enable-background:new 0 0 280.4 702;" xml:space="preserve">
<style type="text/css">
	.st0{opacity:0.5;}
	.st1{fill:#FFFFFF;}
</style>
<g class="st0">
	<path class="st1" d="M274.9,1c1.8,0,3.4,1.4,3.4,3.4v40.5c0,21-14.1,37.3-32.7,37.3c-13.6,0-24.2-11.1-28.1-19.5
		c-3,9.4-12.6,23-28.8,23c-19.8,0-34.1-17-34.1-38.6V4.4c0-1.9,1.6-3.4,3.4-3.4H274.9z M226.3,42.7c0,9,7.1,15.2,15.9,15.2
		c8.8,0,15-6.2,15-15.2V23.8h-31V42.7z M175.3,45.2c0,8.8,6.9,15.9,16.1,15.9c8.8,0,15.4-8.8,15.4-18V23.8h-31.5V45.2z"/>
	<path class="st1" d="M280,164.8c0,35.4-28.5,63.7-63.8,63.7s-63.5-28.3-63.5-63.7c0-35.4,28.1-63.5,63.5-63.5S280,129.4,280,164.8z
		 M175.7,164.8c0,22.3,18.2,40.7,40.5,40.7s40.9-18.4,40.9-40.7c0-22.3-18.6-40.5-40.9-40.5S175.7,142.5,175.7,164.8z"/>
	<path class="st1" d="M274.9,251.6c1.8,0,3.4,1.4,3.4,3.4v16.3c0,1.8-1.6,3.4-3.4,3.4h-99.2v45.1c0,1.9-1.6,3.4-3.4,3.4h-14.5
		c-1.8,0-3.4-1.4-3.4-3.4V255c0-1.9,1.6-3.4,3.4-3.4H274.9z"/>
	<path class="st1" d="M274.9,340.9c1.8,0,3.4,1.4,3.4,3.2V386c0,34.1-27.8,62.1-61.7,62.1c-34.3,0-62.1-27.9-62.1-62.1v-41.9
		c0-1.8,1.6-3.2,3.4-3.2H274.9z M176,383.9c0,23,17.3,39.8,40.5,39.8c23,0,40.3-16.8,40.3-39.8v-20.2H176V383.9z"/>
	<path class="st1" d="M159.1,494.4l119,55c1.1,0.5,1.9,1.4,1.9,3v1.8c0,1.8-0.9,2.5-1.9,3l-119,54.5c-2.3,1.1-4.6-0.4-4.6-3v-15.4
		c0-2.7,1.1-3.9,3.5-5.1l19.1-8.7v-52.9L158,518c-1.8-0.7-3.5-2.3-3.5-5.1v-15.4C154.5,494.8,156.8,493.4,159.1,494.4z M196.7,570.8
		l38.9-17.7v-0.5l-38.9-17.3V570.8z"/>
	<path class="st1" d="M171.8,620.5l11,6.4c2.5,1.4,2.5,4.4,1.2,6c-0.5,0.9-11,15.2-11,26.7c0,9.2,6,16.1,13.6,16.1
		c9,0,15.2-7.6,21.2-22.5c6.7-16.6,17.3-33.3,38.2-33.3c15.7,0,34,11.7,34,39.8c0,18-9.2,31.8-11.9,35.4c-1.1,1.8-4.1,2.3-5.8,1.1
		l-10.1-6.7c-2.1-1.4-3.5-4.1-2.1-6.2c0.9-1.4,9.7-14.9,9.7-24.6c0-10.1-6.7-15.6-12.4-15.6c-8.3,0-14,6.5-19.8,20.9
		c-6.9,17.2-17.2,37-40,37c-18.2,0-35-15.7-35-40.7c0-22.3,10.4-35.4,13.8-38.9C168.1,619.8,169,618.9,171.8,620.5z"/>
	<path class="st1" d="M122.6,1c1.8,0,3.4,1.4,3.4,3.4v40.5c0,21-14.1,37.3-32.7,37.3C79.6,82.2,69,71,65.1,62.7
		c-3,9.4-12.6,23-28.8,23c-19.8,0-34.1-17-34.1-38.6V4.4C2.2,2.4,3.8,1,5.5,1H122.6z M74,42.7c0,9,7.1,15.2,15.9,15.2
		c8.8,0,15-6.2,15-15.2V23.8H74V42.7z M23,45.2c0,8.8,6.9,15.9,16.1,15.9c8.8,0,15.4-8.8,15.4-18V23.8H23V45.2z"/>
	<path class="st1" d="M122.6,110.1c1.8,0,3.4,1.4,3.4,3.4v50.6c0,21.2-17,38.6-38,38.6c-16.3,0-29.5-10.8-35.7-26.2L7.3,200.7
		c-2.3,1.2-5.1,0-5.1-3v-18.6c0-1.6,0.9-2.5,1.6-2.8l46.9-23.5v-19.6H5.5c-1.8,0-3.4-1.6-3.4-3.4v-16.3c0-1.9,1.6-3.4,3.4-3.4H122.6
		z M69.6,162.1c0,9.4,8.1,17.5,18,17.5c9.4,0,17.2-8.1,17.2-17.5v-28.8H69.6V162.1z"/>
	<path class="st1" d="M6.8,211.8l119,55c1.1,0.5,1.9,1.4,1.9,3v1.8c0,1.8-0.9,2.5-1.9,3l-119,54.5c-2.3,1.1-4.6-0.4-4.6-3v-15.4
		c0-2.7,1.1-3.9,3.5-5.1l19.1-8.7V244l-19.1-8.7c-1.8-0.7-3.5-2.3-3.5-5.1v-15.4C2.2,212.2,4.5,210.7,6.8,211.8z M44.4,288.2
		l38.9-17.7V270l-38.9-17.3V288.2z"/>
	<path class="st1" d="M19.5,337.9l11,6.4c2.5,1.4,2.5,4.4,1.2,6c-0.5,0.9-11,15.2-11,26.7c0,9.2,6,16.1,13.6,16.1
		c9,0,15.2-7.6,21.2-22.5c6.7-16.6,17.3-33.3,38.2-33.3c15.7,0,34,11.7,34,39.8c0,18-9.2,31.8-11.9,35.4c-1.1,1.8-4.1,2.3-5.8,1.1
		l-10.1-6.7c-2.1-1.4-3.5-4.1-2.1-6.2c0.9-1.4,9.7-14.9,9.7-24.6c0-10.1-6.7-15.6-12.4-15.6c-8.3,0-14,6.5-19.8,20.9
		c-6.9,17.2-17.2,37-40,37c-18.2,0-35-15.7-35-40.7c0-22.3,10.4-35.4,13.8-38.9C15.8,337.2,16.7,336.3,19.5,337.9z"/>
	<path class="st1" d="M19.5,433.8l11,6.4c2.5,1.4,2.5,4.4,1.2,6c-0.5,0.9-11,15.2-11,26.7c0,9.2,6,16.1,13.6,16.1
		c9,0,15.2-7.6,21.2-22.5c6.7-16.6,17.3-33.3,38.2-33.3c15.7,0,34,11.7,34,39.8c0,18-9.2,31.8-11.9,35.4c-1.1,1.8-4.1,2.3-5.8,1.1
		l-10.1-6.7c-2.1-1.4-3.5-4.1-2.1-6.2c0.9-1.4,9.7-14.9,9.7-24.6c0-10.1-6.7-15.6-12.4-15.6c-8.3,0-14,6.5-19.8,20.9
		c-6.9,17.2-17.2,37-40,37c-18.2,0-35-15.7-35-40.7c0-22.3,10.4-35.4,13.8-38.9C15.8,433.1,16.7,432.2,19.5,433.8z"/>
</g>
</svg>
