<?xml version="1.0" encoding="utf-8"?>
<!-- Generator: Adobe Illustrator 19.1.0, SVG Export Plug-In . SVG Version: 6.00 Build 0)  -->
<svg version="1.1" id="Layer_1" xmlns="http://www.w3.org/2000/svg" xmlns:xlink="http://www.w3.org/1999/xlink" x="0px" y="0px"
	 viewBox="0 0 56.1 744.8" style="enable-background:new 0 0 56.1 744.8;" xml:space="preserve">
<style type="text/css">
	.st0{fill:#FFFFFF;}
</style>
<g>
	<path class="st0" d="M53.7,2.9c0.8,0,1.5,0.7,1.5,1.5v7.2c0,0.9-0.7,1.5-1.5,1.5H33.2v25.2h20.5c0.8,0,1.5,0.6,1.5,1.5v7.1
		c0,0.8-0.7,1.5-1.5,1.5H2.5c-0.8,0-1.5-0.7-1.5-1.5v-7.1c0-0.9,0.7-1.5,1.5-1.5h21.4V13H2.5C1.7,13,1,12.4,1,11.6V4.4
		c0-0.8,0.7-1.5,1.5-1.5H53.7z"/>
	<path class="st0" d="M3,70.8l52.1,24.1c0.5,0.2,0.9,0.6,0.9,1.3V97c0,0.8-0.4,1.1-0.9,1.3L3,122.1c-1,0.5-2-0.2-2-1.3v-6.7
		c0-1.2,0.5-1.7,1.5-2.2l8.4-3.8V84.9l-8.4-3.8c-0.8-0.3-1.5-1-1.5-2.2v-6.7C1,71,2,70.4,3,70.8z M19.5,104.3l17-7.7v-0.2l-17-7.6
		V104.3z"/>
	<path class="st0" d="M53.7,144.7c0.8,0,1.5,0.6,1.5,1.5v22.1c0,9.3-7.4,16.9-16.6,16.9c-7.1,0-12.9-4.7-15.6-11.4L3.2,184.3
		c-1,0.5-2.2,0-2.2-1.3l0-8.1c0-0.7,0.4-1.1,0.7-1.2l20.5-10.3v-8.6H2.5c-0.8,0-1.5-0.7-1.5-1.5v-7.1c0-0.9,0.7-1.5,1.5-1.5H53.7z
		 M30.5,167.4c0,4.1,3.6,7.7,7.9,7.7c4.1,0,7.5-3.6,7.5-7.7v-12.6H30.5V167.4z"/>
	<path class="st0" d="M53.7,211.7c0.8,0,1.5,0.6,1.5,1.4v18.3c0,14.9-12.1,27.2-27,27.2c-15,0-27.2-12.2-27.2-27.2v-18.3
		c0-0.8,0.7-1.4,1.5-1.4H53.7z M10.4,230.5c0,10.1,7.6,17.4,17.7,17.4c10.1,0,17.6-7.4,17.6-17.4v-8.8H10.4V230.5z"/>
	<path class="st0" d="M3,309.8l52.1,24.1c0.5,0.2,0.9,0.6,0.9,1.3v0.8c0,0.8-0.4,1.1-0.9,1.3L3,361.1c-1,0.5-2-0.2-2-1.3V353
		c0-1.2,0.5-1.7,1.5-2.2l8.4-3.8v-23.1l-8.4-3.8c-0.8-0.3-1.5-1-1.5-2.2v-6.7C1,309.9,2,309.3,3,309.8z M19.5,343.2l17-7.7v-0.2
		l-17-7.6V343.2z"/>
	<path class="st0" d="M8.6,380.4l4.8,2.8c1.1,0.6,1.1,1.9,0.5,2.6c-0.2,0.4-4.8,6.7-4.8,11.7c0,4,2.6,7,6,7c3.9,0,6.7-3.3,9.3-9.8
		c2.9-7.3,7.6-14.5,16.7-14.5c6.9,0,14.9,5.1,14.9,17.4c0,7.9-4,13.9-5.2,15.5c-0.5,0.8-1.8,1-2.6,0.5l-4.4-2.9
		c-0.9-0.6-1.5-1.8-0.9-2.7c0.4-0.6,4.3-6.5,4.3-10.8c0-4.4-2.9-6.8-5.4-6.8c-3.6,0-6.1,2.9-8.7,9.1c-3,7.5-7.5,16.2-17.5,16.2
		c-8,0-15.3-6.9-15.3-17.8c0-9.7,4.6-15.5,6-17C6.9,380.1,7.3,379.7,8.6,380.4z"/>
	<path class="st0" d="M54.5,473.6c0.8,0,1.4,0.7,1.4,1.5v1.9l-34.2,32.2v0.1h32c0.8,0,1.5,0.6,1.5,1.5v7.1c0,0.8-0.7,1.5-1.5,1.5
		H1.6c-0.8,0-1.4-0.7-1.4-1.5V516l35.5-32.3v-0.1H2.5c-0.8,0-1.5-0.6-1.5-1.5v-7c0-0.8,0.7-1.5,1.5-1.5H54.5z"/>
	<path class="st0" d="M3,541.8l52.1,24.1c0.5,0.2,0.9,0.6,0.9,1.3v0.8c0,0.8-0.4,1.1-0.9,1.3L3,593.1c-1,0.5-2-0.2-2-1.3v-6.7
		c0-1.2,0.5-1.7,1.5-2.2l8.4-3.8v-23.1l-8.4-3.8c-0.8-0.3-1.5-1-1.5-2.2v-6.7C1,542,2,541.4,3,541.8z M19.5,575.2l17-7.7v-0.2
		l-17-7.6V575.2z"/>
	<path class="st0" d="M53.7,615.6c0.8,0,1.5,0.7,1.5,1.5v7.2c0,0.8-0.7,1.5-1.5,1.5H2.5c-0.8,0-1.5-0.7-1.5-1.5v-7.2
		c0-0.8,0.7-1.5,1.5-1.5H53.7z"/>
	<path class="st0" d="M53.7,655.3c0.8,0,1.5,0.6,1.5,1.5v7.1c0,0.8-0.7,1.5-1.5,1.5H10.3v19.7c0,0.9-0.7,1.5-1.5,1.5H2.5
		c-0.8,0-1.5-0.6-1.5-1.5v-28.3c0-0.9,0.7-1.5,1.5-1.5H53.7z"/>
	<path class="st0" d="M8.6,706.7l4.8,2.8c1.1,0.6,1.1,1.9,0.5,2.6c-0.2,0.4-4.8,6.7-4.8,11.7c0,4,2.6,7,6,7c3.9,0,6.7-3.3,9.3-9.8
		c2.9-7.3,7.6-14.5,16.7-14.5c6.9,0,14.9,5.1,14.9,17.4c0,7.9-4,13.9-5.2,15.5c-0.5,0.8-1.8,1-2.6,0.5l-4.4-2.9
		c-0.9-0.6-1.5-1.8-0.9-2.7c0.4-0.6,4.3-6.5,4.3-10.8c0-4.4-2.9-6.8-5.4-6.8c-3.6,0-6.1,2.9-8.7,9.1c-3,7.5-7.5,16.2-17.5,16.2
		c-8,0-15.3-6.9-15.3-17.8c0-9.7,4.6-15.5,6-17C6.9,706.4,7.3,706,8.6,706.7z"/>
</g>
</svg>
