<?xml version="1.0" encoding="utf-8"?>
<!-- Generator: Adobe Illustrator 19.1.0, SVG Export Plug-In . SVG Version: 6.00 Build 0)  -->
<svg version="1.1" id="Layer_1" xmlns="http://www.w3.org/2000/svg" xmlns:xlink="http://www.w3.org/1999/xlink" x="0px" y="0px"
	 viewBox="0 0 531.7 266.5" style="enable-background:new 0 0 531.7 266.5;" xml:space="preserve">
<style type="text/css">
	.st0{fill:#5D5D5D;}
	.st1{fill:#FFFFFF;}
</style>
<g>
	<path class="st0" d="M23.2,225.7c5.5,0,9.6,1.8,13.1,5c0.3,0.3,0.3,0.7,0.1,1c-0.3,0.3-0.6,0.7-0.9,0.9c-0.3,0.4-0.6,0.3-0.9,0
		c-3-2.8-7-4.6-11.4-4.6c-9.4,0-16.9,7.7-16.9,17.1s7.4,17.1,16.9,17.1c6.6,0,10.7-2.6,11.3-3v-10.2h-9.3c-0.6,0-0.7-0.2-0.7-0.7
		v-1.1c0-0.4,0.1-0.7,0.7-0.7h11.1c0.4,0,0.7,0.3,0.7,0.7v12.6c0,0.8-0.3,1.1-0.8,1.4c-1,0.7-5.9,3.5-13,3.5
		c-10.9,0-19.6-8.6-19.6-19.5C3.5,234.4,12.3,225.7,23.2,225.7z"/>
	<path class="st0" d="M74.2,225.7c10.9,0,19.6,8.7,19.6,19.6c0,10.9-8.7,19.5-19.6,19.5c-10.9,0-19.5-8.6-19.5-19.5
		C54.7,234.4,63.4,225.7,74.2,225.7z M74.2,262.4c9.5,0,17.2-7.6,17.2-17.1s-7.7-17.2-17.2-17.2s-17.1,7.7-17.1,17.2
		S64.8,262.4,74.2,262.4z"/>
	<path class="st0" d="M130.3,225.7c10.9,0,19.6,8.7,19.6,19.6c0,10.9-8.7,19.5-19.6,19.5c-10.9,0-19.5-8.6-19.5-19.5
		C110.8,234.4,119.5,225.7,130.3,225.7z M130.3,262.4c9.5,0,17.2-7.6,17.2-17.1s-7.7-17.2-17.2-17.2s-17.1,7.7-17.1,17.2
		S120.8,262.4,130.3,262.4z"/>
	<path class="st0" d="M169.5,227c0-0.4,0.3-0.7,0.7-0.7h11.5c10.5,0,19.1,8.5,19.1,18.9c0,10.6-8.6,19-19.1,19h-11.5
		c-0.3,0-0.7-0.3-0.7-0.7V227z M181.3,261.9c9.5,0,16.8-7.2,16.8-16.7c0-9.4-7.3-16.6-16.8-16.6h-9.2v33.3H181.3z"/>
	<path class="st0" d="M237.6,263.6l16.7-37.8c0.1-0.2,0.4-0.4,0.7-0.4h0.2c0.3,0,0.5,0.1,0.7,0.4l16.5,37.8c0.1,0.3,0.1,0.7-0.5,0.7
		h-1.4c-0.4,0-0.7-0.3-0.8-0.5l-4.4-10h-20.7l-4.3,10c-0.1,0.2-0.4,0.5-0.8,0.5H238C237.6,264.2,237.5,264,237.6,263.6z
		 M264.5,251.6l-9.3-21.9h-0.1l-9.4,21.9H264.5z"/>
	<path class="st0" d="M287.1,259.2l0.5-0.7c0.4-0.4,0.8-0.6,1.2-0.2c0.5,0.5,4.6,4.2,10,4.2c4.9,0,9.1-3.3,9.1-7.3
		c0-4.8-4-7-10.5-9.2c-6.3-2.2-10.5-4.4-10.5-10.7c0-4.1,3.3-9.6,11.7-9.6c5.4,0,9.3,2.8,9.3,2.8c0.2,0.2,0.6,0.5,0.2,1.1
		c-0.2,0.2-0.3,0.5-0.4,0.7c-0.3,0.4-0.7,0.6-1.2,0.3c-0.2-0.1-3.8-2.5-8-2.5c-6.7,0-9.2,4.1-9.2,7.2c0,4.6,3.5,6.6,9,8.4
		c7.4,2.5,12.2,5.2,12.2,11.4c0,5.4-5.6,9.7-11.8,9.7c-6.5,0-10.8-3.8-11.5-4.4C286.9,260.1,286.7,259.8,287.1,259.2z"/>
	<path class="st0" d="M369.2,225.7c5.5,0,9.6,1.8,13.1,5c0.3,0.3,0.3,0.7,0.1,1c-0.3,0.3-0.6,0.7-0.9,0.9c-0.3,0.4-0.6,0.3-0.9,0
		c-3-2.8-7-4.6-11.4-4.6c-9.4,0-16.9,7.7-16.9,17.1s7.4,17.1,16.9,17.1c6.6,0,10.7-2.6,11.3-3v-10.2h-9.3c-0.6,0-0.7-0.2-0.7-0.7
		v-1.1c0-0.4,0.1-0.7,0.7-0.7h11.1c0.4,0,0.7,0.3,0.7,0.7v12.6c0,0.8-0.3,1.1-0.8,1.4c-1,0.7-5.9,3.5-13,3.5
		c-10.9,0-19.6-8.6-19.6-19.5C349.6,234.4,358.3,225.7,369.2,225.7z"/>
	<path class="st0" d="M420.3,225.7c10.9,0,19.6,8.7,19.6,19.6c0,10.9-8.7,19.5-19.6,19.5c-10.9,0-19.5-8.6-19.5-19.5
		C400.8,234.4,409.5,225.7,420.3,225.7z M420.3,262.4c9.5,0,17.2-7.6,17.2-17.1s-7.7-17.2-17.2-17.2c-9.5,0-17.1,7.7-17.1,17.2
		S410.8,262.4,420.3,262.4z"/>
	<path class="st0" d="M459.5,227c0-0.4,0.3-0.7,0.7-0.7h1.2c0.3,0,0.7,0.3,0.7,0.7v35h17.3c0.7,0,0.7,0.3,0.7,0.7v1
		c0,0.4-0.3,0.6-0.7,0.6h-19.2c-0.4,0-0.7-0.3-0.7-0.7V227z"/>
	<path class="st0" d="M496.9,227c0-0.4,0.3-0.7,0.7-0.7h11.5c10.5,0,19.1,8.5,19.1,18.9c0,10.6-8.6,19-19.1,19h-11.5
		c-0.3,0-0.7-0.3-0.7-0.7V227z M508.7,261.9c9.5,0,16.8-7.2,16.8-16.7c0-9.4-7.3-16.6-16.8-16.6h-9.2v33.3H508.7z"/>
</g>
<circle class="st1" cx="258.3" cy="83.1" r="81.3"/>
<path class="st0" d="M258.6,142.6c-13.2,0-26.1-4.7-36.9-13.5c-12.4-10.2-20.3-24.5-22.2-40.2c-1.9-15.6,2.4-31,12.1-43.2
	c9.7-12.2,23.6-20,39.3-21.9c22.7-2.7,45.3,8.9,57.6,29.7c0.3,0.5,0.1,1.1-0.4,1.4c-0.5,0.3-1.1,0.1-1.4-0.4
	c-11.8-20-33.6-31.3-55.6-28.7c-15.1,1.8-28.6,9.3-38,21.1c-9.4,11.8-13.5,26.6-11.7,41.7c1.8,15,9.6,29.2,21.5,38.9
	c12.1,9.9,27.1,14.5,42.1,12.7c23.4-2.8,42.8-19.6,48.6-40.6h-71.3c-0.6,0-1-0.4-1-1s0.4-1,1-1H315c0.3,0,0.6,0,0.8,0.3
	s0.3,0.5,0.2,0.8c-5.7,23.1-26,40.5-50.6,43.5C263.1,142.5,260.8,142.6,258.6,142.6z"/>
<path class="st0" d="M278.7,118.7c-0.4,0-0.8-0.3-0.9-0.7l-20.2-55c-0.2-0.5,0.1-1.1,0.6-1.3c0.5-0.2,1.1,0.1,1.3,0.6l20.2,55
	c0.2,0.5-0.1,1.1-0.6,1.3C278.9,118.7,278.8,118.7,278.7,118.7z"/>
<path class="st0" d="M227.1,131.7c-0.1,0-0.3,0-0.4-0.1c-0.5-0.2-0.7-0.8-0.5-1.3l31.4-68c0.2-0.5,0.8-0.7,1.3-0.5
	c0.5,0.2,0.7,0.8,0.5,1.3l-31.4,68C227.8,131.5,227.5,131.7,227.1,131.7z"/>
<path class="st0" d="M258.3,125c-23.6,0-42.9-19.2-42.9-42.9c0-23.6,19.3-42.9,42.9-42.9c16,0,30.6,8.8,38.1,23.1
	c0.3,0.5,0.1,1.1-0.4,1.3c-0.5,0.3-1.1,0.1-1.3-0.4c-7.1-13.6-21-22-36.3-22c-22.6,0-40.9,18.3-40.9,40.9
	c0,22.5,18.3,40.9,40.9,40.9c22.2,0,40.3-17.8,40.9-39.8l-33-0.1c-0.6,0-1-0.6-1-1.2c0-0.6,0.4-1.2,1-1.2c0,0,0,0,0,0l34.1,0.2
	c0.6,0,1,0.5,1,1.1C301.2,105.7,281.9,125,258.3,125z"/>
</svg>
