<?xml version="1.0" encoding="utf-8"?>
<!-- Generator: Adobe Illustrator 19.1.0, SVG Export Plug-In . SVG Version: 6.00 Build 0)  -->
<svg version="1.1" id="Layer_1" xmlns="http://www.w3.org/2000/svg" xmlns:xlink="http://www.w3.org/1999/xlink" x="0px" y="0px"
	 viewBox="0 0 631.5 266.5" style="enable-background:new 0 0 631.5 266.5;" xml:space="preserve">
<style type="text/css">
	.st0{fill:#FFFFFF;}
	.st1{fill:#5D5D5D;}
</style>
<circle class="st0" cx="306.8" cy="83.9" r="81.6"/>
<g>
	<path class="st1" d="M3.9,228.3c-0.1-0.5,0.1-0.7,0.6-0.7h1.3c0.3,0,0.6,0.3,0.7,0.6l9.2,31.9c0.1,0,0.1,0,0.1,0l9.6-32.6
		c0.1-0.3,0.5-0.5,0.8-0.5h0.1c0.3,0,0.7,0.2,0.8,0.5l9.6,32.6c0,0,0.1,0,0.1,0l9.1-31.9c0.1-0.3,0.3-0.6,0.7-0.6h1.3
		c0.5,0,0.7,0.2,0.6,0.7l-10.8,37.6c-0.1,0.2-0.3,0.4-0.5,0.4h-0.6c-0.3,0-0.4-0.1-0.5-0.4l-9.8-33.2h-0.1l-9.8,33.2
		c-0.1,0.3-0.3,0.4-0.5,0.4h-0.6c-0.2,0-0.4-0.2-0.5-0.4L3.9,228.3z"/>
	<path class="st1" d="M67.1,228.3c0-0.4,0.3-0.7,0.7-0.7h21.8c0.4,0,0.7,0.3,0.7,0.7v0.9c0,0.4-0.3,0.7-0.7,0.7H69.7v15H87
		c0.4,0,0.7,0.3,0.7,0.7v0.9c0,0.4-0.3,0.7-0.7,0.7H69.7v16.1h19.9c0.4,0,0.7,0.3,0.7,0.7v0.9c0,0.4-0.3,0.7-0.7,0.7H67.8
		c-0.4,0-0.7-0.3-0.7-0.7V228.3z"/>
	<path class="st1" d="M131,260.7l0.5-0.7c0.4-0.4,0.8-0.6,1.2-0.2c0.5,0.5,4.6,4.2,10.1,4.2c5,0,9.2-3.3,9.2-7.3c0-4.8-4-7-10.6-9.3
		c-6.3-2.2-10.5-4.5-10.5-10.7c0-4.1,3.3-9.6,11.8-9.6c5.4,0,9.4,2.8,9.4,2.8c0.2,0.2,0.6,0.5,0.2,1.1c-0.2,0.2-0.3,0.5-0.4,0.7
		c-0.3,0.4-0.7,0.6-1.2,0.3c-0.2-0.1-3.8-2.6-8-2.6c-6.7,0-9.2,4.1-9.2,7.2c0,4.6,3.5,6.6,9,8.4c7.5,2.6,12.2,5.2,12.2,11.5
		c0,5.4-5.6,9.7-11.9,9.7c-6.5,0-10.8-3.8-11.5-4.5C130.8,261.5,130.6,261.3,131,260.7z"/>
	<path class="st1" d="M173.8,228.3c0-0.4,0.3-0.7,0.7-0.7h11.7c6.8,0,12.3,5.5,12.3,12.2c0,6.8-5.6,12.4-12.3,12.4h-9.9V265
		c0,0.4-0.3,0.7-0.9,0.7h-1c-0.4,0-0.7-0.3-0.7-0.7V228.3z M186.1,249.7c5.3,0,9.9-4.4,9.9-9.9c0-5.3-4.5-9.6-9.9-9.6h-9.7v19.5
		H186.1z"/>
	<path class="st1" d="M217,228.3c0-0.4,0.3-0.7,0.7-0.7h21.8c0.4,0,0.7,0.3,0.7,0.7v0.9c0,0.4-0.3,0.7-0.7,0.7h-19.9v15h17.3
		c0.4,0,0.7,0.3,0.7,0.7v0.9c0,0.4-0.3,0.7-0.7,0.7h-17.3v16.1h19.9c0.4,0,0.7,0.3,0.7,0.7v0.9c0,0.4-0.3,0.7-0.7,0.7h-21.8
		c-0.4,0-0.7-0.3-0.7-0.7V228.3z"/>
	<path class="st1" d="M255,265.1l16.8-37.9c0.1-0.2,0.4-0.4,0.7-0.4h0.2c0.3,0,0.5,0.1,0.7,0.4l16.6,37.9c0.1,0.3,0.1,0.7-0.5,0.7
		H288c-0.4,0-0.7-0.3-0.8-0.5l-4.4-10h-20.8l-4.4,10c-0.1,0.2-0.4,0.5-0.8,0.5h-1.5C255,265.7,254.9,265.5,255,265.1z M281.9,253.1
		l-9.3-22h-0.1l-9.5,22H281.9z"/>
	<path class="st1" d="M306.9,228.4c0-0.5,0.3-0.8,0.8-0.8h1c0.5,0,0.8,0.3,0.8,0.8v16.8l18.5-17.3c0.4-0.4,0.6-0.4,1.1-0.4h1.5
		c0.6,0,0.7,0.6,0.3,0.9l-19,17.6l19.6,18.7c0.3,0.3,0.2,0.9-0.5,0.9h-1.7c-0.5,0-0.8-0.1-1.2-0.5l-18.6-18.1V265
		c0,0.5-0.4,0.7-0.8,0.7h-1.1c-0.4,0-0.7-0.3-0.7-0.7V228.4z"/>
	<path class="st1" d="M372.7,228.3c0-0.4,0.3-0.7,0.7-0.7h11.5c10.6,0,19.2,8.6,19.2,19c0,10.6-8.6,19.1-19.2,19.1h-11.5
		c-0.3,0-0.7-0.3-0.7-0.7V228.3z M384.5,263.4c9.5,0,16.9-7.2,16.9-16.8c0-9.4-7.4-16.7-16.9-16.7h-9.2v33.4H384.5z"/>
	<path class="st1" d="M423.8,228.3c0-0.4,0.3-0.7,0.7-0.7h1.2c0.4,0,0.7,0.3,0.7,0.7V265c0,0.4-0.4,0.7-0.8,0.7h-1.1
		c-0.4,0-0.7-0.3-0.7-0.7V228.3z"/>
	<path class="st1" d="M465.8,227.1c5.5,0,9.6,1.9,13.2,5.1c0.3,0.3,0.3,0.7,0.1,1c-0.3,0.3-0.6,0.7-0.9,0.9c-0.3,0.4-0.6,0.3-0.9,0
		c-3-2.8-7-4.6-11.5-4.6c-9.5,0-16.9,7.7-16.9,17.2c0,9.4,7.5,17.2,16.9,17.2c6.6,0,10.8-2.6,11.3-3v-10.2h-9.3
		c-0.6,0-0.7-0.2-0.7-0.7v-1.1c0-0.4,0.1-0.7,0.7-0.7H479c0.4,0,0.7,0.3,0.7,0.7v12.6c0,0.8-0.3,1.1-0.8,1.4
		c-1,0.7-5.9,3.5-13.1,3.5c-10.9,0-19.7-8.6-19.7-19.6C446.1,235.8,454.9,227.1,465.8,227.1z"/>
	<path class="st1" d="M500.2,228.3c0-0.4,0.3-0.7,0.7-0.7h1.2c0.4,0,0.7,0.3,0.7,0.7V265c0,0.4-0.4,0.7-0.8,0.7h-1.1
		c-0.4,0-0.7-0.3-0.7-0.7V228.3z"/>
	<path class="st1" d="M531,229.9h-10.4c-0.5,0-0.7-0.3-0.7-0.8v-0.8c0-0.4,0.3-0.7,0.7-0.7h23.4c0.4,0,0.7,0.3,0.7,0.7v0.9
		c0,0.4-0.3,0.7-0.7,0.7h-10.5V265c0,0.4-0.3,0.7-0.9,0.7h-1c-0.4,0-0.7-0.3-0.7-0.7V229.9z"/>
	<path class="st1" d="M554.3,265.1l16.8-37.9c0.1-0.2,0.4-0.4,0.7-0.4h0.2c0.3,0,0.5,0.1,0.7,0.4l16.6,37.9c0.1,0.3,0.1,0.7-0.5,0.7
		h-1.4c-0.4,0-0.7-0.3-0.8-0.5l-4.4-10h-20.8l-4.4,10c-0.1,0.2-0.4,0.5-0.8,0.5h-1.5C554.3,265.7,554.1,265.5,554.3,265.1z
		 M581.2,253.1l-9.3-22h-0.1l-9.5,22H581.2z"/>
	<path class="st1" d="M606.2,228.3c0-0.4,0.3-0.7,0.7-0.7h1.2c0.3,0,0.7,0.3,0.7,0.7v35.1h17.4c0.7,0,0.7,0.3,0.7,0.7v1
		c0,0.4-0.3,0.6-0.7,0.6h-19.2c-0.4,0-0.7-0.3-0.7-0.7V228.3z"/>
</g>
<path class="st1" d="M307.3,143.7c-29.3,0-55.8-23.3-59.4-53.9c-1.9-15.7,2.4-31.1,12.2-43.4c9.7-12.3,23.7-20.1,39.4-21.9
	c22.8-2.7,45.5,9,57.8,29.8c0.3,0.5,0.1,1.1-0.4,1.4c-0.5,0.3-1.1,0.1-1.4-0.4c-11.9-20.1-33.8-31.4-55.8-28.8
	c-15.2,1.8-28.7,9.3-38.1,21.2c-9.4,11.9-13.6,26.8-11.8,41.9c3.8,31.7,33,55.1,63.8,51.4c23.5-2.8,42.9-19.2,48.8-41.2h-71.6
	c-0.5,0-1-0.5-1-1s0.4-1,1-1h72.8c0.3,0,0.6,0.5,0.8,0.7s0.3,0.7,0.2,1c-5.7,23.1-26.1,40.8-50.8,43.7
	C311.7,143.4,309.5,143.7,307.3,143.7z"/>
<path class="st1" d="M327.2,119.6c-0.4,0-0.8-0.2-0.9-0.6l-20.3-55.2c-0.2-0.5,0.1-1.1,0.6-1.3c0.5-0.2,1.1,0.1,1.3,0.6l20.2,55.2
	c0.2,0.5-0.1,1.1-0.6,1.3C327.5,119.6,327.4,119.6,327.2,119.6z"/>
<path class="st1" d="M275.5,132.7c-0.1,0-0.3,0-0.4-0.1c-0.5-0.2-0.7-0.8-0.5-1.3L306.1,63c0.2-0.5,0.8-0.7,1.3-0.5
	c0.5,0.2,0.7,0.8,0.5,1.3l-31.5,68.3C276.2,132.5,275.9,132.7,275.5,132.7z"/>
<path class="st1" d="M306.8,125.9c-23.7,0-43-19.3-43-43c0-23.7,19.3-43,43.1-43c16.1,0,30.7,8.9,38.2,23.1c0.3,0.5,0.1,1.1-0.4,1.3
	c-0.5,0.3-1.1,0.1-1.3-0.4c-7.1-13.6-21.1-22.1-36.4-22.1c-22.7,0-41.1,18.4-41.1,41c0,22.6,18.4,41.1,41.1,41.1
	c22.3,0,40.5-17.9,41-40l-33.2-0.1c-0.5,0-1-0.5-1-1.1c0-0.5,0.4-1.1,1-1.1c0,0,0,0,0,0l34.2,0.1c0.5,0,1,0.5,1,1
	C349.8,106.6,330.5,125.9,306.8,125.9z"/>
</svg>
