<?xml version="1.0" encoding="utf-8"?>
<!-- Generator: Adobe Illustrator 19.1.0, SVG Export Plug-In . SVG Version: 6.00 Build 0)  -->
<svg version="1.1" id="Layer_1" xmlns="http://www.w3.org/2000/svg" xmlns:xlink="http://www.w3.org/1999/xlink" x="0px" y="0px"
	 viewBox="0 0 164.8 164.8" style="enable-background:new 0 0 164.8 164.8;" xml:space="preserve">
<style type="text/css">
	.st0{opacity:0.8;fill:#FFFFFF;}
	.st1{fill:none;stroke:#5D5D5D;stroke-width:2;stroke-linecap:round;stroke-linejoin:round;stroke-miterlimit:10;}
</style>
<circle class="st0" cx="82.4" cy="82.4" r="81"/>
<path id="XMLID_319_" class="st1" d="M131.6,53.5c-11.3-19.1-32.9-31.9-56.4-29.1c-31.7,3.8-54.2,32-50.4,63.7s32.7,56,64.4,52.2
	c24.8-3,44.2-20.4,49.6-42.6H66.6"/>
<line id="XMLID_304_" class="st1" x1="82.6" y1="62.1" x2="102.7" y2="116.9"/>
<line id="XMLID_286_" class="st1" x1="51.3" y1="129.8" x2="82.6" y2="62.1"/>
<path class="st1" d="M119.5,62.1c-7-13.3-21-22.4-37-22.4c-23,0-41.8,18.7-41.8,41.7s18.7,41.7,41.7,41.7s41.7-18.8,41.7-41.7
	l-33.9-0.1"/>
</svg>
