<?xml version="1.0" encoding="utf-8"?>
<!-- Generator: Adobe Illustrator 19.1.0, SVG Export Plug-In . SVG Version: 6.00 Build 0)  -->
<svg version="1.1" id="Layer_1" xmlns="http://www.w3.org/2000/svg" xmlns:xlink="http://www.w3.org/1999/xlink" x="0px" y="0px"
	 viewBox="0 0 40.6 41.4" style="enable-background:new 0 0 40.6 41.4;" xml:space="preserve">
<style type="text/css">
	.st0{fill:#5D5D5D;}
</style>
<path class="st0" d="M20.7,40.2c-9.8,0-18.6-7.6-19.8-17.6c-1.3-10.5,6.4-20,17.2-21.3c7.6-0.9,15.1,2.9,19.2,9.7
	c0.1,0.2,0.1,0.5-0.2,0.6c-0.2,0.1-0.5,0.1-0.7-0.2C32.6,5,25.4,1.4,18.2,2.3C8,3.5,0.7,12.5,1.9,22.5c1.2,10.2,10.8,17.9,20.9,16.7
	c7.6-0.9,14.2-5.9,15.9-12.9H15.3c-0.3,0-0.5-0.2-0.5-0.5s0.2-0.5,0.5-0.5h24c0.1,0,0.3,0,0.4,0.1s0.1,0.2,0.1,0.4
	c-1.9,7.6-8.7,13.3-16.9,14.2C22.2,40.2,21.4,40.2,20.7,40.2z"/>
<path class="st0" d="M27.3,32.4c-0.2,0-0.4-0.1-0.5-0.3l-6.7-17.9c-0.1-0.2,0-0.5,0.3-0.6c0.2-0.1,0.5,0,0.6,0.3l6.7,17.9
	c0.1,0.2,0,0.5-0.3,0.6C27.4,32.4,27.3,32.4,27.3,32.4z"/>
<path class="st0" d="M10.2,36.6c-0.1,0-0.1,0-0.2,0c-0.2-0.1-0.3-0.4-0.2-0.6l10.4-22.1c0.1-0.2,0.4-0.3,0.6-0.2
	c0.2,0.1,0.3,0.4,0.2,0.6L10.6,36.4C10.6,36.5,10.4,36.6,10.2,36.6z"/>
<path class="st0" d="M20.5,34.5c-7.9,0-14.4-6.3-14.4-14.1c0-7.8,6.4-14.1,14.4-14.1c5.4,0,10.2,2.9,12.7,7.6c0.1,0.2,0,0.5-0.2,0.6
	c-0.2,0.1-0.5,0-0.6-0.2c-2.3-4.4-6.9-7.1-11.9-7.1c-7.4,0-13.4,5.9-13.4,13.1c0,7.2,6,13.1,13.4,13.1c7.2,0,13.1-5.6,13.4-12.6
	l-10.8,0c-0.3,0-0.5-0.2-0.5-0.5c0-0.3,0.2-0.5,0.5-0.5h0l11.3,0c0.3,0,0.5,0.2,0.5,0.5C34.9,28.2,28.4,34.5,20.5,34.5z"/>
</svg>
