<?xml version="1.0" encoding="utf-8"?>
<!-- Generator: Adobe Illustrator 19.1.0, SVG Export Plug-In . SVG Version: 6.00 Build 0)  -->
<svg version="1.1" id="Layer_1" xmlns="http://www.w3.org/2000/svg" xmlns:xlink="http://www.w3.org/1999/xlink" x="0px" y="0px"
	 viewBox="0 0 113 707.1" style="enable-background:new 0 0 113 707.1;" xml:space="preserve">
<style type="text/css">
	.st0{opacity:0.7;}
	.st1{fill:#FFFFFF;}
</style>
<g class="st0">
	<path class="st1" d="M17.5,5.8l9.6,5.6c2.2,1.2,2.2,3.9,1.1,5.3c-0.5,0.8-9.6,13.3-9.6,23.4c0,8,5.3,14.1,11.9,14.1
		c7.9,0,13.3-6.7,18.6-19.7C55,19.9,64.3,5.3,82.5,5.3c13.8,0,29.7,10.2,29.7,34.8c0,15.8-8,27.9-10.4,31c-0.9,1.5-3.6,2-5.1,0.9
		l-8.8-5.9c-1.9-1.2-3.1-3.6-1.9-5.4c0.8-1.2,8.5-13,8.5-21.5c0-8.8-5.9-13.6-10.8-13.6c-7.3,0-12.2,5.7-17.3,18.3
		c-6,15-15,32.3-35,32.3c-15.9,0-30.6-13.8-30.6-35.6c0-19.5,9.1-31,12.1-34C14.3,5.2,15,4.4,17.5,5.8z"/>
	<path class="st1" d="M107.7,96c1.5,0,2.9,1.2,2.9,2.9v63c0,1.7-1.4,2.9-2.9,2.9H95.1c-1.5,0-2.9-1.2-2.9-2.9v-45.8H66.7v38.2
		c0,1.5-1.4,2.9-2.9,2.9H50.9c-1.7,0-2.9-1.4-2.9-2.9v-38.2H20.9v45.8c0,1.7-1.4,2.9-2.9,2.9H5.3c-1.5,0-2.9-1.2-2.9-2.9v-63
		c0-1.7,1.4-2.9,2.9-2.9H107.7z"/>
	<path class="st1" d="M107.7,187c1.5,0,2.9,1.2,2.9,2.9v44.3c0,18.6-14.9,33.7-33.3,33.7c-14.2,0-25.8-9.4-31.3-22.9L6.8,266.2
		c-2,1.1-4.5,0-4.5-2.6v-16.3c0-1.4,0.8-2.2,1.4-2.5l41-20.6v-17.2H5.3c-1.5,0-2.9-1.4-2.9-2.9v-14.2c0-1.7,1.4-2.9,2.9-2.9H107.7z
		 M61.3,232.5c0,8.2,7.1,15.3,15.8,15.3c8.2,0,15-7.1,15-15.3v-25.2H61.3V232.5z"/>
	<path class="st1" d="M106.7,276c2-0.9,4,0.3,4,2.6v15.8c0,1.4-0.9,2.3-1.7,2.6l-66.5,29.7v1.1l66.5,29.7c0.8,0.3,1.7,1.2,1.7,2.6
		V376c0,2.3-2,3.6-4,2.6l-104.2-48c-0.9-0.5-1.7-1.2-1.7-2.6v-1.5c0-1.4,0.8-2.2,1.7-2.6L106.7,276z"/>
	<path class="st1" d="M107.7,392.7c1.5,0,2.9,1.4,2.9,2.9V410c0,1.5-1.4,2.9-2.9,2.9H5.3c-1.5,0-2.9-1.4-2.9-2.9v-14.4
		c0-1.5,1.4-2.9,2.9-2.9H107.7z"/>
	<path class="st1" d="M112.2,489.1c0,15.6-5,26.9-14.4,37.5c-1.2,1.4-3.1,1.4-4.3,0.2l-9.7-9.4c-1.2-1.1-1.2-2.6,0-3.9
		c5.7-6.5,9.1-15.2,9.1-23.8c0-19.8-16.6-34.5-36.1-34.5c-19.3,0-35.7,14.9-35.7,34.7c0,9.3,3.6,17.2,8.8,23.7
		c1.1,1.2,0.9,2.9,0,3.9l-9.9,9.6c-1.1,1.2-3.1,0.9-4.2-0.2c-10.2-10.5-15-23.8-15-37.6c0-31,24.6-55.9,55.6-55.9
		S112.2,458.1,112.2,489.1z"/>
	<path class="st1" d="M107.7,547c1.5,0,2.9,1.2,2.9,2.9v63c0,1.7-1.4,2.9-2.9,2.9H95.1c-1.5,0-2.9-1.2-2.9-2.9v-45.8H66.7v38.2
		c0,1.5-1.4,2.9-2.9,2.9H50.9c-1.7,0-2.9-1.4-2.9-2.9v-38.2H20.9v45.8c0,1.7-1.4,2.9-2.9,2.9H5.3c-1.5,0-2.9-1.2-2.9-2.9v-63
		c0-1.7,1.4-2.9,2.9-2.9H107.7z"/>
	<path class="st1" d="M17.5,631.6l9.6,5.6c2.2,1.2,2.2,3.9,1.1,5.3c-0.5,0.8-9.6,13.3-9.6,23.4c0,8,5.3,14.1,11.9,14.1
		c7.9,0,13.3-6.7,18.6-19.7c5.9-14.5,15.2-29.1,33.4-29.1c13.8,0,29.7,10.2,29.7,34.8c0,15.8-8,27.9-10.4,31c-0.9,1.5-3.6,2-5.1,0.9
		l-8.8-5.9c-1.9-1.2-3.1-3.6-1.9-5.4c0.8-1.2,8.5-13,8.5-21.5c0-8.8-5.9-13.6-10.8-13.6c-7.3,0-12.2,5.7-17.3,18.3
		c-6,15-15,32.3-35,32.3c-15.9,0-30.6-13.8-30.6-35.6c0-19.5,9.1-31,12.1-34C14.3,631,15,630.2,17.5,631.6z"/>
</g>
</svg>
