<?xml version="1.0" encoding="utf-8"?>
<!-- Generator: Adobe Illustrator 19.1.0, SVG Export Plug-In . SVG Version: 6.00 Build 0)  -->
<svg version="1.1" id="Layer_1" xmlns="http://www.w3.org/2000/svg" xmlns:xlink="http://www.w3.org/1999/xlink" x="0px" y="0px"
	 viewBox="0 0 190.5 866.2" style="enable-background:new 0 0 190.5 866.2;" xml:space="preserve">
<style type="text/css">
	.st0{opacity:0.7;}
	.st1{fill:#FFFFFF;}
</style>
<g class="st0">
	<path class="st1" d="M29.3,5.9l16.2,9.4c3.7,2.1,3.7,6.5,1.8,8.9c-0.8,1.3-16.2,22.5-16.2,39.5c0,13.6,8.9,23.8,20.2,23.8
		c13.4,0,22.5-11.3,31.4-33.3c10-24.6,25.7-49.2,56.6-49.2c23.3,0,50.3,17.3,50.3,58.9c0,26.7-13.6,47.1-17.5,52.4
		c-1.6,2.6-6,3.4-8.6,1.6l-14.9-10c-3.1-2.1-5.2-6-3.1-9.2c1.3-2.1,14.4-22,14.4-36.4c0-14.9-10-23-18.3-23
		c-12.3,0-20.7,9.7-29.3,30.9C101.8,95.7,86.6,125,52.9,125C25.9,125,1,101.7,1,64.8c0-33,15.4-52.4,20.4-57.6
		C23.8,4.8,25.1,3.5,29.3,5.9z"/>
	<path class="st1" d="M181.9,158.5c2.6,0,5,2.4,5,5v24.4c0,2.9-2.4,5-5,5h-69.4v85.4h69.4c2.6,0,5,2.1,5,5v24.1c0,2.6-2.4,5-5,5H8.6
		c-2.6,0-5-2.4-5-5v-24.1c0-2.9,2.4-5,5-5h72.3v-85.4H8.6c-2.6,0-5-2.1-5-5v-24.4c0-2.6,2.4-5,5-5H181.9z"/>
	<path class="st1" d="M189.5,440.8c0,52.4-42.2,94.3-94.5,94.3c-52.4,0-94-41.9-94-94.3s41.6-94,94-94
		C147.4,346.8,189.5,388.4,189.5,440.8z M35.1,440.8c0,33,27,60.2,60,60.2s60.5-27.2,60.5-60.2s-27.5-60-60.5-60
		S35.1,407.8,35.1,440.8z"/>
	<path class="st1" d="M181.9,566.8c2.6,0,5,2.4,5,5v24.9c0,2.9-2.4,5-5,5H74.9c-22.3,0-39.8,15.2-39.8,38
		c0,22.8,17.5,38.2,39.5,38.2h107.4c2.6,0,5,2.1,5,5v24.9c0,2.6-2.4,5-5,5H73c-39.8,0-72-31.7-72-73.1c0-41.1,32.2-72.8,72-72.8
		H181.9z"/>
	<path class="st1" d="M155.5,782.3v-40.1c0-2.9,2.4-5,5-5h21.5c2.6,0,5,2.1,5,5v114.4c0,2.9-2.4,5-5,5h-21.5c-2.6,0-5-2.1-5-5v-40.1
		H8.6c-2.6,0-5-2.4-5-5v-24.4c0-2.6,2.4-5,5-5H155.5z"/>
</g>
</svg>
