<?xml version="1.0" encoding="utf-8"?>
<!-- Generator: Adobe Illustrator 19.1.0, SVG Export Plug-In . SVG Version: 6.00 Build 0)  -->
<svg version="1.1" id="Layer_1" xmlns="http://www.w3.org/2000/svg" xmlns:xlink="http://www.w3.org/1999/xlink" x="0px" y="0px"
	 viewBox="0 0 107.3 107.3" style="enable-background:new 0 0 107.3 107.3;" xml:space="preserve">
<style type="text/css">
	.st0{fill:#5D5D5D;}
</style>
<path class="st0" d="M53.7,105.2c-28.4,0-51.5-23.1-51.5-51.5c0-28.4,23.1-51.5,51.5-51.5c28.4,0,51.5,23.1,51.5,51.5
	C105.2,82.1,82.1,105.2,53.7,105.2z M53.7,4.1C26.3,4.1,4.1,26.3,4.1,53.7c0,27.3,22.2,49.6,49.6,49.6c27.3,0,49.6-22.2,49.6-49.6
	C103.2,26.3,81,4.1,53.7,4.1z"/>
<path class="st0" d="M78.8,78.6c-0.1,0-0.2,0-0.3-0.1L26.8,60.3c-0.4-0.1-1.2-0.5-1.2-0.9V47.3c0-0.4,0.8-0.8,1.2-0.9l51.1-18.3
	c0.5-0.2,1.1,0,1.3,0.5c7.6,15.7,7.8,34.2,0.5,49.5C79.5,78.4,79.2,78.6,78.8,78.6z M27.6,58.8l50.3,17.7C84.4,62,84,44.9,77.1,30.2
	L27.6,48V58.8z"/>
<path class="st0" d="M23.9,66.4c-2.3,0-4.2-1.9-4.2-4.2V44.2c0-2.3,1.9-4.2,4.2-4.2s4.2,1.9,4.2,4.2v17.9
	C28.2,64.5,26.3,66.4,23.9,66.4z M23.9,41.9c-1.3,0-2.3,1-2.3,2.3v17.9c0,1.3,1,2.3,2.3,2.3s2.3-1,2.3-2.3V44.2
	C26.2,43,25.2,41.9,23.9,41.9z"/>
<path class="st0" d="M53.3,79.2H40.8c-3.9,0-7.1-3.2-7.1-7.1v-8c0-0.5,0.4-1,1-1c0.5,0,1,0.4,1,1v8c0,2.8,2.3,5.2,5.2,5.2h12.5
	c2.8,0,5.2-2.3,5.2-5.2c0-0.5,0.4-1,1-1s1,0.4,1,1C60.4,76.1,57.2,79.2,53.3,79.2z"/>
</svg>
