<?xml version="1.0" encoding="utf-8"?>
<!-- Generator: Adobe Illustrator 19.1.0, SVG Export Plug-In . SVG Version: 6.00 Build 0)  -->
<svg version="1.1" id="Layer_1" xmlns="http://www.w3.org/2000/svg" xmlns:xlink="http://www.w3.org/1999/xlink" x="0px" y="0px"
	 viewBox="0 0 76.7 457.8" style="enable-background:new 0 0 76.7 457.8;" xml:space="preserve">
<style type="text/css">
	.st0{opacity:0.4;}
	.st1{fill:#FFFFFF;}
</style>
<g class="st0">
	<path class="st1" d="M6.7,3.4l5.8,2.9c1.1,0.4,1.3,1.5,0.7,2.5c0,0-2.6,4.8-2.6,9.7c0,2.1,0.9,3.6,2.7,3.6c1.9,0,3.1-1.5,5.3-7.1
		c3.2-8.2,7.6-12,14.1-12c6.5,0,12.6,4.8,12.6,15.7c0,6.3-1.8,10.9-3.3,13.1c-0.6,1-1.8,1.5-2.9,1L33.6,30c-1-0.5-1.1-1.7-0.7-2.6
		c0,0,2.2-4.8,2.2-8.9c0-2.6-1.1-3.6-2.5-3.6c-1.9,0-2.6,1.9-4.2,5.9c-3.2,8.2-6.7,14.4-15,14.4c-7,0-13-6.2-13-17
		c0-7,2.2-11.9,3.9-14.2C5,3.4,5.8,3,6.7,3.4z"/>
	<path class="st1" d="M42.2,43.8c1.2,0,2,1,2,2v8.7c0,1.1-0.9,2-2,2h-21c-5.7,0-9.2,2.9-9.2,7.8c0,4.5,4.2,7.9,8,8.5h22.2
		c1.6,0,2,0.6,2,2.3v8.1c0,1.1-0.9,2-2,2H3.6c-1.1,0-2-1-2-2v-3.9c0-1.1,0.7-1.7,1.6-2l3.5-1.3C5,74.2,0.5,70.3,0.5,61.9
		c0-13.2,10.1-18,21-18H42.2z"/>
	<path class="st1" d="M42.2,98.2c1.2,0,2,1,2,2v4.1c0,1-0.5,1.6-1.4,1.9l-4.2,1.5c2.1,1.5,6.6,5.4,6.6,12.1c0,5-1.6,9.5-4.3,8.2
		l-6.9-3.9c-1-0.5-1.4-1.6-1-2.5c0.1-0.3,0.6-1.9,0.6-3.1c0-4.3-2.9-6.8-4.4-7.6H3.6c-1.5,0-2-1-2-2.5v-8.2c0-1.1,1-2,2-2H42.2z"/>
	<path class="st1" d="M45.3,152.8c0,11-8.3,19.9-19.8,19.9c-0.7,0-2.1-0.1-2.9-0.2c-1.1-0.1-1.8-1.1-1.8-2v-27.3
		c-4.4,0.3-9.3,4.1-9.3,10.2c0,3.3,1.3,6.4,2.7,8.3c0.6,1.1,0.9,2,0,2.8l-5,4.4c-0.7,0.7-1.9,1-2.8-0.1c-3.3-3.5-5.9-9-5.9-15.9
		c0-12.8,10.1-21.9,22.4-21.9C34.9,131.1,45.3,140.1,45.3,152.8z M28.2,160.3c3.9-0.3,7.3-3.7,7.3-7.8c0-4.3-3.2-7.8-7.3-8.3V160.3z
		"/>
	<path class="st1" d="M28.5,219.3c0,4.3-1.2,7.8-1.2,7.8c5.4,0.1,7.4-1.6,7.4-5.5s-0.9-9.5-1.6-11.9c-0.4-1.5,0.5-2.2,1.9-2.5l5.5-1
		c1.6-0.3,2.3,0.5,2.7,1.5c0.3,0.9,2,7.7,2,14.5c0,13.3-6.9,16.4-18.6,16.4H3.6c-1.1,0-2-1-2-2v-3.8c0-0.7,0.3-1.3,1.5-1.8l2.9-1.3
		c-2.2-2.5-5.4-6.4-5.4-13c0-8.5,5.5-14.4,14.6-14.4C22.7,202.2,28.5,208.4,28.5,219.3z M9.6,219.5c0,3.4,2.9,6.7,4.2,7.4h5.9
		c0,0,1.3-2.9,1.3-6c0-4.2-2.3-6.9-5.8-6.9C11.9,213.9,9.6,216.2,9.6,219.5z"/>
	<path class="st1" d="M6.7,248.5l5.8,2.9c1.1,0.4,1.3,1.5,0.7,2.5c0,0-2.6,4.8-2.6,9.7c0,2.1,0.9,3.6,2.7,3.6c1.9,0,3.1-1.5,5.3-7.1
		c3.2-8.2,7.6-12,14.1-12c6.5,0,12.6,4.8,12.6,15.7c0,6.3-1.8,10.9-3.3,13.1c-0.6,1-1.8,1.5-2.9,1l-5.4-2.7c-1-0.5-1.1-1.7-0.7-2.6
		c0,0,2.2-4.8,2.2-8.9c0-2.6-1.1-3.6-2.5-3.6c-1.9,0-2.6,1.9-4.2,5.9c-3.2,8.2-6.7,14.4-15,14.4c-7,0-13-6.2-13-17
		c0-7,2.2-11.9,3.9-14.2C5,248.5,5.8,248,6.7,248.5z"/>
	<path class="st1" d="M74.2,313.2c1.1,0,2,1,2,2v9.1c0,1.1-1,2-2,2H41.8c1.6,2.1,3.5,6.3,3.5,11.3c0,13.5-10.4,19.1-21.2,19.1H3.6
		c-1.1,0-2-1-2-2V346c0-1.2,1-2,2-2h20.6c5.9,0,9.6-3.3,9.6-8.4c0-4.9-3.2-8.2-7.6-9.3H3.6c-1.2,0-2-0.6-2-2.2v-8.9c0-1.1,1-2,2-2
		H74.2z"/>
	<path class="st1" d="M45.3,387.2c0,11-8.3,19.9-19.8,19.9c-0.7,0-2.1-0.1-2.9-0.2c-1.1-0.1-1.8-1.1-1.8-2v-27.3
		c-4.4,0.3-9.3,4.1-9.3,10.2c0,3.3,1.3,6.4,2.7,8.3c0.6,1.1,0.9,2,0,2.8l-5,4.4c-0.7,0.7-1.9,1-2.8-0.1c-3.3-3.5-5.9-9-5.9-15.9
		c0-12.8,10.1-21.9,22.4-21.9C34.9,365.4,45.3,374.5,45.3,387.2z M28.2,394.7c3.9-0.3,7.3-3.7,7.3-7.8c0-4.3-3.2-7.8-7.3-8.3V394.7z
		"/>
	<path class="st1" d="M74.2,416.1c1.1,0,2,1,2,2v9c0,1.1-1,2-2,2H3.6c-1.1,0-2-1-2-2v-9c0-1.1,1-2,2-2H74.2z"/>
	<path class="st1" d="M74.2,441.9c1.1,0,2,1,2,2v9c0,1.1-1,2-2,2H3.6c-1.1,0-2-1-2-2v-9c0-1.1,1-2,2-2H74.2z"/>
</g>
</svg>
