<?xml version="1.0" encoding="utf-8"?>
<!-- Generator: Adobe Illustrator 19.1.0, SVG Export Plug-In . SVG Version: 6.00 Build 0)  -->
<svg version="1.1" id="Layer_1" xmlns="http://www.w3.org/2000/svg" xmlns:xlink="http://www.w3.org/1999/xlink" x="0px" y="0px"
	 viewBox="-197 195.3 563.4 171.7" style="enable-background:new -197 195.3 563.4 171.7;" xml:space="preserve">
<style type="text/css">
	.st0{fill:#666666;}
</style>
<g>
	<path class="st0" d="M-70.4,198.9c-0.2-0.8,0.2-1.1,0.9-1.1h2c0.5,0,0.9,0.4,1,0.9l14.1,49.2c0.1,0,0.2,0,0.2,0l14.8-50.2
		c0.2-0.5,0.8-0.8,1.3-0.8h0.2c0.5,0,1.1,0.3,1.3,0.8l14.9,50.2c0,0,0.1,0,0.2,0l14-49.2c0.1-0.5,0.5-0.9,1-0.9h2
		c0.8,0,1.1,0.3,0.9,1.1l-16.6,58c-0.1,0.3-0.4,0.6-0.8,0.6H-20c-0.4,0-0.7-0.2-0.8-0.6L-36,205.7h-0.2l-15.1,51.2
		c-0.2,0.4-0.4,0.6-0.8,0.6H-53c-0.3,0-0.7-0.3-0.8-0.6L-70.4,198.9z"/>
	<path class="st0" d="M18.6,198.9c0-0.6,0.5-1.1,1.1-1.1h1.8c0.7,0,1.1,0.5,1.1,1.1v25.8h37.7v-25.8c0-0.6,0.5-1.1,1.1-1.1h1.8
		c0.7,0,1.1,0.5,1.1,1.1v56.6c0,0.6-0.4,1.1-1.1,1.1h-1.8c-0.6,0-1.1-0.5-1.1-1.1v-27.3H22.6v27.3c0,0.6-0.4,1.1-1.1,1.1h-1.8
		c-0.6,0-1.1-0.5-1.1-1.1V198.9z"/>
	<path class="st0" d="M116.5,197c16.9,0,30.3,13.5,30.3,30.3c0,16.9-13.4,30.2-30.3,30.2c-16.8,0-30.2-13.3-30.2-30.2
		C86.2,210.5,99.7,197,116.5,197z M116.5,253.7c14.7,0,26.6-11.8,26.6-26.5c0-14.7-11.9-26.6-26.6-26.6c-14.7,0-26.5,11.9-26.5,26.6
		C89.9,242,101.8,253.7,116.5,253.7z"/>
	<path class="st0" d="M187,255.6l25.9-58.5c0.2-0.3,0.6-0.6,1-0.6h0.3c0.4,0,0.8,0.1,1.1,0.6l25.6,58.5c0.2,0.5,0.2,1-0.8,1h-2.2
		c-0.6,0-1-0.4-1.2-0.8l-6.8-15.5h-32.1l-6.7,15.5c-0.2,0.3-0.6,0.8-1.2,0.8h-2.4C187,256.6,186.8,256.3,187,255.6z M228.5,237.1
		l-14.4-33.9H214l-14.6,33.9H228.5z"/>
	<path class="st0" d="M258.7,198.9c0-0.6,0.4-1.1,1.1-1.1h20.8c10.2,0,18.7,7.7,18.7,18c0,8.5-5.9,15.3-13.9,17.6l12.3,21.8
		c0.4,0.7,0.3,1.5-0.6,1.5h-2.6c-0.6,0-0.9-0.3-1.2-0.8l-12.2-22c-1.1,0.1-2,0.1-3.1,0.1h-15.5v21.6c0,0.6-0.5,1.1-1.3,1.1h-1.5
		c-0.6,0-1.1-0.5-1.1-1.1V198.9z M280.4,230.4c8.1,0,14.9-6.3,14.9-14.6c0-8-6.8-14.1-15-14.1h-17.6v28.7H280.4z"/>
	<path class="st0" d="M321.7,198.9c0-0.6,0.5-1.1,1.1-1.1h33.7c0.6,0,1.1,0.5,1.1,1.1v1.4c0,0.6-0.5,1.1-1.1,1.1h-30.7v23.2h26.6
		c0.6,0,1.1,0.5,1.1,1.1v1.4c0,0.6-0.5,1.1-1.1,1.1h-26.6v24.9h30.7c0.6,0,1.1,0.5,1.1,1.1v1.3c0,0.6-0.5,1.1-1.1,1.1h-33.7
		c-0.6,0-1.1-0.5-1.1-1.1V198.9z"/>
	<path class="st0" d="M16.2,299.7c-0.2-0.8,0.2-1.1,0.9-1.1h2c0.5,0,0.9,0.4,1,0.9l14.1,49.2c0.1,0,0.2,0,0.2,0l14.8-50.2
		c0.2-0.5,0.8-0.8,1.3-0.8h0.2c0.5,0,1.1,0.3,1.3,0.8l14.9,50.2c0,0,0.1,0,0.2,0l14-49.2c0.1-0.5,0.5-0.9,1-0.9h2
		c0.8,0,1.1,0.3,0.9,1.1l-16.6,58c-0.1,0.3-0.4,0.6-0.8,0.6h-0.9c-0.4,0-0.7-0.2-0.8-0.6l-15.1-51.2h-0.2l-15.1,51.2
		c-0.2,0.4-0.4,0.6-0.8,0.6h-0.9c-0.3,0-0.7-0.3-0.8-0.6L16.2,299.7z"/>
	<path class="st0" d="M105.2,299.7c0-0.6,0.5-1.1,1.1-1.1H140c0.6,0,1.1,0.5,1.1,1.1v1.4c0,0.6-0.5,1.1-1.1,1.1h-30.7v23.2h26.6
		c0.6,0,1.1,0.5,1.1,1.1v1.4c0,0.6-0.5,1.1-1.1,1.1h-26.6v24.9H140c0.6,0,1.1,0.5,1.1,1.1v1.3c0,0.6-0.5,1.1-1.1,1.1h-33.7
		c-0.6,0-1.1-0.5-1.1-1.1V299.7z"/>
	<path class="st0" d="M171,333.3v-4.9c0-8.1,14-10.1,14-18.6c0-4.4-3.7-8.7-10.3-8.7c-7.7,0-11.3,5-12.1,5.9
		c-0.3,0.3-0.7,0.6-1.4,0.1l-0.8-0.6c-0.8-0.6-0.6-1.1-0.3-1.6c0,0,4.6-7.1,14.9-7.1c8.5,0,13.9,5,13.9,11.8
		c0,11.1-14.1,12.9-14.1,18.9v4.8c0,0.8-0.3,1.2-1.1,1.2H172C171.2,334.5,171,333.9,171,333.3z M172.7,351.5c1.9,0,3.4,1.4,3.4,3.4
		c0,1.8-1.5,3.4-3.4,3.4c-1.8,0-3.4-1.5-3.4-3.4C169.4,352.9,170.9,351.5,172.7,351.5z"/>
	<path class="st0" d="M232.6,299.7c-0.2-0.8,0.2-1.1,0.9-1.1h2c0.5,0,0.9,0.4,1,0.9l14.1,49.2c0.1,0,0.2,0,0.2,0l14.8-50.2
		c0.2-0.5,0.8-0.8,1.3-0.8h0.2c0.5,0,1.1,0.3,1.3,0.8l14.9,50.2c0,0,0.1,0,0.2,0l14-49.2c0.1-0.5,0.5-0.9,1-0.9h2
		c0.8,0,1.1,0.3,0.9,1.1l-16.6,58c-0.1,0.3-0.4,0.6-0.8,0.6H283c-0.4,0-0.7-0.2-0.8-0.6l-15.1-51.2h-0.2l-15.1,51.2
		c-0.2,0.4-0.4,0.6-0.8,0.6H250c-0.3,0-0.7-0.3-0.8-0.6L232.6,299.7z"/>
	<path class="st0" d="M321.7,299.7c0-0.6,0.5-1.1,1.1-1.1h33.7c0.6,0,1.1,0.5,1.1,1.1v1.4c0,0.6-0.5,1.1-1.1,1.1h-30.7v23.2h26.6
		c0.6,0,1.1,0.5,1.1,1.1v1.4c0,0.6-0.5,1.1-1.1,1.1h-26.6v24.9h30.7c0.6,0,1.1,0.5,1.1,1.1v1.3c0,0.6-0.5,1.1-1.1,1.1h-33.7
		c-0.6,0-1.1-0.5-1.1-1.1V299.7z"/>
</g>
<rect x="10" y="311.4" class="st0" width="189.4" height="33.2"/>
<rect x="177" y="210.6" class="st0" width="189.4" height="33.2"/>
</svg>
