<?xml version="1.0" encoding="utf-8"?>
<!-- Generator: Adobe Illustrator 19.1.0, SVG Export Plug-In . SVG Version: 6.00 Build 0)  -->
<svg version="1.1" id="Layer_1" xmlns="http://www.w3.org/2000/svg" xmlns:xlink="http://www.w3.org/1999/xlink" x="0px" y="0px"
	 viewBox="-202 -13.3 190.5 866.2" style="enable-background:new -202 -13.3 190.5 866.2;" xml:space="preserve">
<style type="text/css">
	.st0{fill:#FFFFFF;}
</style>
<g>
	<path class="st0" d="M-28.1,16.2c3.4-1,5.8,1,5.8,4.3v22.2c0,1.9-1.7,3.9-3.4,4.3l-96.2,25.1v1l99.3,38.3c1.4,0.5,2.7,1.7,2.7,4.1
		v4.3c0,2.4-1.2,3.6-2.7,4.1l-99.3,38.6v1l96.2,24.6c1.7,0.5,3.4,2.4,3.4,4.3v22.2c0,3.4-2.4,5.3-5.8,4.3l-162-45.6
		c-1.9-0.5-3.4-2.4-3.4-4.3v-3.9c0-2.2,1.2-3.6,2.7-4.1l109.2-43.2v-1.2l-109.2-42.7c-1.4-0.7-2.7-1.7-2.7-4.1v-3.9
		c0-1.9,1.4-3.9,3.4-4.3L-28.1,16.2z"/>
	<path class="st0" d="M-19.9,345.4c0,48.2-38.8,86.8-87.1,86.8c-48.2,0-86.6-38.6-86.6-86.8c0-48.2,38.3-86.6,86.6-86.6
		S-19.9,297.1-19.9,345.4z M-162.2,345.4c0,30.4,24.8,55.5,55.2,55.5s55.7-25.1,55.7-55.5s-25.3-55.2-55.7-55.2
		S-162.2,315-162.2,345.4z"/>
	<path class="st0" d="M-26.9,487.9c2.4,0,4.6,1.9,4.6,4.6v69c0,28.9-23.1,52.6-51.8,52.6c-22.2,0-40.3-14.7-48.7-35.7l-61.2,33
		c-3.1,1.7-7,0-7-4.1V582c0-2.2,1.2-3.4,2.2-3.9l63.9-32.1v-26.8h-61.5c-2.4,0-4.6-2.2-4.6-4.6v-22.2c0-2.7,2.2-4.6,4.6-4.6
		L-26.9,487.9L-26.9,487.9z M-99.2,558.8c0,12.8,11.1,23.9,24.6,23.9c12.8,0,23.4-11.1,23.4-23.9v-39.3h-48V558.8z"/>
	<path class="st0" d="M-28.1,672.6c3.1,0,5.8,2.4,5.8,5.8v21.2c0,3.1-2.7,5.8-5.8,5.8h-65.1l68.5,60.8c1.2,1,2.4,2.4,2.4,4.6v24.1
		c0,4.6-5.1,7-8.7,3.9l-70.9-62.9l-80.8,67.5c-3.1,2.4-8.4,0.5-8.4-4.3v-26.3c0-2.4,1-3.9,1.7-4.3l77.6-62.9h-73.5
		c-3.1,0-5.8-2.7-5.8-5.8v-21.2c0-3.4,2.7-5.8,5.8-5.8h157.2V672.6z"/>
</g>
</svg>
